<svg width="18" height="18" viewBox="0 0 18 18" fill="none" xmlns="http://www.w3.org/2000/svg">
<g clip-path="url(#clip0_557_109)">
<path d="M17.8485 6.90483L14.9571 3.96374C14.8591 3.86404 14.7284 3.80966 14.5903 3.80966H7.20677C6.69295 3.80966 6.27417 4.23564 6.27417 4.7583V17.0514C6.27417 17.574 6.69295 18 7.20677 18H17.0673C17.5812 18 17.9999 17.574 17.9999 17.0514V7.27794C17.9999 7.13746 17.9465 7.00453 17.8485 6.90483ZM16.9634 16.9456H7.3122V4.86404H14.072V6.85649C14.072 7.37915 14.4908 7.80513 15.0046 7.80513H16.9634V16.9456Z" fill="#55E8C9"/>
<path d="M1.03655 1.05438H10.6744V2.74018H11.7109V0.94864C11.7109 0.424471 11.2936 0 10.7783 0H0.932596C0.417292 0 0 0.425982 0 0.94864V13.2432C0 13.7674 0.417292 14.1918 0.932596 14.1918H5.22581V13.1375H1.03655V1.05438Z" fill="#55E8C9"/>
</g>
<defs>
<clipPath id="clip0_557_109">
<rect width="18" height="18" fill="white"/>
</clipPath>
</defs>
</svg>
