<svg width="22" height="22" viewBox="0 0 22 22" fill="none" xmlns="http://www.w3.org/2000/svg">
<g clip-path="url(#clip0_582_214)">
<path d="M14.6362 2.50825C11.2922 -0.835737 5.85134 -0.835737 2.50823 2.50825C-0.835752 5.85223 -0.835752 11.2931 2.50823 14.6362C5.4919 17.6199 10.1445 17.9407 13.4876 15.6012L19.4488 21.5624C20.0323 22.1459 20.9788 22.1459 21.5624 21.5624C22.1459 20.9788 22.1459 20.0323 21.5624 19.4488L15.6012 13.4876C17.9415 10.1445 17.6199 5.49191 14.6362 2.50825ZM13.2266 13.2275C10.6595 15.7945 6.48323 15.7945 3.91701 13.2275C1.34992 10.6604 1.34992 6.48412 3.91701 3.91791C6.48411 1.35082 10.6604 1.35082 13.2266 3.91791C15.7937 6.485 15.7937 10.6612 13.2266 13.2283V13.2275Z" fill="black"/>
</g>
<defs>
<clipPath id="clip0_582_214">
<rect width="22" height="22" fill="white"/>
</clipPath>
</defs>
</svg>
