<svg width="23" height="23" viewBox="0 0 23 23" fill="none" xmlns="http://www.w3.org/2000/svg">
<path fill-rule="evenodd" clip-rule="evenodd" d="M19.3126 3.71459C23.6261 8.02806 23.6261 15.0216 19.3126 19.3351C14.9991 23.6485 8.0056 23.6485 3.69213 19.3351C-0.621336 15.0216 -0.621336 8.02806 3.69213 3.71459C8.0056 -0.598875 14.9991 -0.598875 19.3126 3.71459ZM14.647 4.3485C15.1836 5.14429 16.5764 6.82472 18.0057 7.48301L18.0053 7.48343L18.1296 7.54055V10.0091L17.8475 9.93596C16.7685 9.65589 15.6556 8.98659 14.539 7.94627V13.6298C14.539 16.1233 12.3714 18.1519 9.7071 18.1519C7.04275 18.1519 4.8752 16.1233 4.8752 13.6298C4.8752 11.1362 7.04275 9.10759 9.7071 9.10759V11.4611C8.42962 11.4611 7.38992 12.4316 7.38992 13.6298C7.38992 14.8279 8.42691 15.8026 9.7071 15.8026C10.9873 15.8026 12.0288 14.8279 12.0288 13.6298C12.0288 13.62 12.0283 13.6112 12.0274 13.6018C12.0261 13.5828 12.0247 13.5642 12.0247 13.5439L12.0293 3.79301H14.2755L14.647 4.3485Z" fill="#231F20"/>
</svg>
