<svg width="23" height="23" viewBox="0 0 23 23" fill="none" xmlns="http://www.w3.org/2000/svg">
<g clip-path="url(#clip0_1_252)">
<path d="M19.3126 19.3352C23.6261 15.0218 23.6261 8.02824 19.3126 3.71477C14.9991 -0.598703 8.0056 -0.598703 3.69214 3.71477C-0.621334 8.02824 -0.621334 15.0218 3.69214 19.3352C8.0056 23.6487 14.9991 23.6487 19.3126 19.3352Z" fill="#231F20"/>
<path d="M18.0057 7.48318C16.5764 6.82489 15.1836 5.14446 14.647 4.34867L14.2755 3.79318H12.0293L12.0247 13.5441C12.0247 13.5644 12.0261 13.583 12.0274 13.602C12.0283 13.6113 12.0288 13.6202 12.0288 13.6299C12.0288 14.8281 10.9873 15.8028 9.7071 15.8028C8.42691 15.8028 7.38992 14.8281 7.38992 13.6299C7.38992 12.4318 8.42962 11.4613 9.7071 11.4613V9.10776C7.04275 9.10776 4.8752 11.1364 4.8752 13.6299C4.8752 16.1235 7.04275 18.1521 9.7071 18.1521C12.3715 18.1521 14.539 16.1235 14.539 13.6299V7.94644C15.6556 8.98677 16.7685 9.65606 17.8475 9.93613L18.1296 10.0093V7.54072L18.0053 7.48361L18.0057 7.48318Z" fill="#55E8C9"/>
</g>
<defs>
<clipPath id="clip0_1_252">
<rect width="22.0907" height="22.0907" fill="white" transform="translate(0.457031 0.479492)"/>
</clipPath>
</defs>
</svg>
