<svg width="24" height="24" viewBox="0 0 24 24" fill="none" xmlns="http://www.w3.org/2000/svg">
<path d="M11.9498 7.80376V12.8777M20.7254 8.60593V15.2166C20.7254 16.299 20.1455 17.3041 19.208 17.855L13.4672 21.17C12.5297 21.7112 11.37 21.7112 10.4228 21.17L4.68202 17.855C4.21983 17.587 3.8363 17.2022 3.56995 16.739C3.30361 16.2759 3.16383 15.7508 3.16467 15.2166V8.60593C3.16467 7.52349 3.74455 6.51836 4.68202 5.96748L10.4228 2.6525C11.3603 2.11128 12.5201 2.11128 13.4672 2.6525L19.208 5.96748C20.1455 6.51836 20.7254 7.51382 20.7254 8.60593Z" stroke="black" stroke-width="1.6568" stroke-linecap="round" stroke-linejoin="round"/>
<path d="M11.95 15.9702V16.0663" stroke="black" stroke-width="2.20907" stroke-linecap="round" stroke-linejoin="round"/>
</svg>
